#!OML:ASF E:/inclinewalkrobotboard/Project1/Captureday1/Session1/subject1.ASF
:FULLY-SPECIFIED
:DEGREES
38
root 0 0 0 1.0814882234950791 -3.638217457402665 1.8642705927152927
lowerback 11.9251433153331 0.860533936309994 -0.07390432366853567
upperback -4.239912768865317 1.089142511291383 -0.564102097265204
thorax -11.316834271938417 0.49758749364009636 -0.8007465404447109
lowerneck -5.7795656008923775 1.4614004575059396 4.545243728546884
upperneck 18.145919452928297 2.899523195417814 -8.265421761804848
head 6.628410470836535 1.0546204582303167 -3.199646332761654
rclavicle -6.099660242904033E-16 -6.32384804565368E-16
rhumerus 20.04106461625989 14.635045707800078 -48.183126145735365
rradius 72.4333461442417
rwrist 26.695816290464315
rhand -34.664294481035384 -57.11880772321739
rfingers 7.125020000000034
rthumb -7.827152676568061 -87.03357941641873
lclavicle 1.3674127764174138E-15 -1.998357405745793E-15
lhumerus 20.788330733226474 -12.693778378843536 45.26117503013572
lradius 69.88573835030151
lwrist -22.295690246028364
lhand -44.72173425977539 -69.5859607072401
lfingers 7.1250200000000286
lthumb -17.51433741979161 -40.3826249561873
rfemur -24.82804408749474 -2.192669912472989 17.215202391632488
rtibia 54.00997737283188
rfoot -29.000620193473832 -16.702696490934358
rtoes -17.681722073156465
lfemur -26.60277248400216 2.3991404442300572 -18.30073795219198
ltibia 54.129501176968645
lfoot -31.044032276997953 -3.5532674742789707
ltoes -19.647393146362806
39
root 0 0 0 1.0728178737396399 -3.6451279350414714 1.8668443385248192
lowerback 11.924571662971516 0.8605085885828783 -0.06742210447767785
upperback -4.236889086830214 1.0897208345260632 -0.5637200640753572
thorax -11.312539225351975 0.4977654534499208 -0.8037600403077017
lowerneck -5.741174390165263 1.4570864270742994 4.557120370775687
upperneck 18.127001343711527 2.894649267210403 -8.288129948033076
head 6.615850921754777 1.0525908464478175 -3.2094145622165593
rclavicle -9.673565321886015E-16 -2.872913316813485E-16
rhumerus 20.12905804609836 14.679262220641892 -48.152240196695175
rradius 72.52139647029784
rwrist 26.739060912135095
rhand -34.784126799187675 -57.41864430632771
rfingers 7.125020000000038
rthumb -7.944404901359432 -87.33528985690064
lclavicle 8.085067568532504E-16 -1.7065516497609383E-15
lhumerus 20.824722620331585 -12.715607350491343 45.315095425165396
lradius 69.91851544886109
lwrist -22.27132735630395
lhand -44.78535461267687 -69.79713354510632
lfingers 7.1250200000000286
lthumb -17.576659927691267 -40.59888315734703
rfemur -24.887851125601102 -2.211115290423919 17.20943576767017
rtibia 54.04437974374168
rfoot -29.069749497619895 -16.729955347379928
rtoes -17.6694156146363
lfemur -26.688761901234788 2.4053000447358364 -18.29912232141696
ltibia 54.19869844820685
lfoot -31.04978106684649 -3.548674562553336
ltoes -19.578905864534917
40
root 0 0 0 1.0709711712049006 -3.6474860078963687 1.8665753167064976
lowerback 11.925277587265358 0.8601885277077547 -0.06616967909533503
upperback -4.235645179392897 1.089490679664608 -0.5629846533946525
thorax -11.311436759395804 0.4976232395533846 -0.8036302717455728
lowerneck -5.731318773533194 1.455267205842419 4.557693604586273
upperneck 18.120490059725963 2.89225897783151 -8.291526425302804
head 6.612070038515321 1.0516390445149117 -3.2107878558844036
rclavicle -9.524397326398798E-16 -3.205923949480969E-16
rhumerus 20.132897364741304 14.681909021112343 -48.154586758391304
rradius 72.52493821607985
rwrist 26.73878552511588
rhand -34.792133369109465 -57.433182108437194
rfingers 7.125020000000038
rthumb -7.951908024123883 -87.34948377583666
lclavicle 8.450042027351639E-16 -1.7338982632857338E-15
lhumerus 20.830484980545783 -12.719789331068014 45.311810239385416
lradius 69.92386264084425
lwrist -22.272333837225702
lhand -44.78743814007912 -69.80838261226478
lfingers 7.1250200000000286
lthumb -17.578827727851035 -40.61029062802745
rfemur -24.891022748337054 -2.212092426819162 17.209428285299765
rtibia 54.04828746807303
rfoot -29.07421450448744 -16.733111948661914
rtoes -17.665750715976642
lfemur -26.711278564245447 2.406737645990388 -18.29678270404633
ltibia 54.20255598653274
lfoot -31.052659708855693 -3.543023290240385
ltoes -19.56416961111284
41
root 0 0 0 1.0670951617264703 -3.6538991384713633 1.8659950427829988
lowerback 11.925266505467237 0.8596057145671121 -0.06421138757435543
upperback -4.233159810890658 1.089044441513761 -0.5616999182108169
thorax -11.308521497023492 0.4973778708611382 -0.8031744634242675
lowerneck -5.716648525035093 1.4531166266867224 4.559869158280874
upperneck 18.11127232894388 2.889865828293625 -8.298173678787792
head 6.606610338214847 1.0506611858013868 -3.2134844990408307
rclavicle -1.0021361620211636E-15 -3.30896701436885E-16
rhumerus 20.14098137894658 14.687045596512752 -48.147854983530216
rradius 72.53192380363602
rwrist 26.743319022276562
rhand -34.79053513424776 -57.44154501888454
rfingers 7.125020000000038
rthumb -7.950474927384871 -87.35673784172472
lclavicle 7.795234480817236E-16 -1.7476461775598688E-15
lhumerus 20.833127035680448 -12.72051875809819 45.31056870891829
lradius 69.9246393905386
lwrist -22.272297262625663
lhand -44.78874841337703 -69.8121912052033
lfingers 7.1250200000000286
lthumb -17.579846984100698 -40.61523980115615
rfemur -24.893580657782397 -2.212442587154762 17.208219380971176
rtibia 54.049224052017216
rfoot -29.0772833972824 -16.734447790370158
rtoes -17.66969150820745
lfemur -26.7090808456441 2.4055644773291203 -18.29667102594008
ltibia 54.187171733104414
lfoot -31.060674074271176 -3.5355778989853097
ltoes -19.579952582812
